<?xml version="1.0" encoding="utf-8"?>
<!-- Generator: $$$/GeneralStr/196=Adobe Illustrator 27.6.0, SVG Export Plug-In . SVG Version: 6.00 Build 0)  -->
<svg version="1.1" id="图层_1" xmlns="http://www.w3.org/2000/svg" xmlns:xlink="http://www.w3.org/1999/xlink" x="0px" y="0px"
	 viewBox="0 0 500 500" style="enable-background:new 0 0 500 500;" xml:space="preserve">
<g>
	<path d="M251,161c49.07,0,89,39.93,89,89s-39.93,89-89,89s-89-39.93-89-89S201.93,161,251,161 M251,141c-60.2,0-109,48.8-109,109
		s48.8,109,109,109s109-48.8,109-109S311.2,141,251,141L251,141z"/>
</g>
<g>
	<g id="_x3C_径向重复_x3E__00000087383909605142817810000012660817749246815912_">
		<path d="M205.31,382.84L205.31,382.84c-7.25-2.52-15.16,1.32-17.68,8.56l-17.79,51.21c-2.52,7.25,1.32,15.16,8.56,17.68h0
			c7.25,2.52,15.16-1.32,17.68-8.56l17.79-51.21C216.39,393.28,212.56,385.36,205.31,382.84z"/>
	</g>
	<g id="_x3C_径向重复_x3E__00000152244534651739674560000010565899955561206933_">
		<path d="M140.48,336.97L140.48,336.97c-4.74-6.04-13.47-7.09-19.5-2.36l-42.66,33.46c-6.04,4.74-7.09,13.47-2.36,19.5l0,0
			c4.74,6.04,13.47,7.09,19.5,2.36l42.66-33.46C144.16,351.74,145.21,343.01,140.48,336.97z"/>
	</g>
	<g id="_x3C_径向重复_x3E__00000121280610396051580650000003672159978924241564_">
		<path d="M110.73,263.33L110.73,263.33c-0.72-7.64-7.5-13.25-15.13-12.53l-53.98,5.09c-7.64,0.72-13.25,7.5-12.53,15.13l0,0
			c0.72,7.64,7.5,13.25,15.13,12.53l53.98-5.09C105.84,277.75,111.45,270.97,110.73,263.33z"/>
	</g>
	<g id="_x3C_径向重复_x3E__00000088851165903222601350000003502413057732494490_">
		<path d="M125.52,185.3L125.52,185.3c3.52-6.82,0.86-15.2-5.96-18.72l-48.16-24.9c-6.82-3.52-15.2-0.86-18.72,5.96l0,0
			c-3.52,6.82-0.86,15.2,5.96,18.72l48.16,24.9C113.61,194.79,121.99,192.12,125.52,185.3z"/>
	</g>
	<g id="_x3C_径向重复_x3E__00000030446475124406633820000005049359225463886783_">
		<path d="M180.14,127.65L180.14,127.65c6.65-3.83,8.94-12.32,5.11-18.97L158.2,61.7c-3.83-6.65-12.32-8.94-18.97-5.11l0,0
			c-6.65,3.83-8.94,12.32-5.11,18.97l27.05,46.98C165,129.19,173.5,131.48,180.14,127.65z"/>
	</g>
	<g id="_x3C_径向重复_x3E__00000116216053369659892270000008188866014733020845_">
		<path d="M257.27,108.69L257.27,108.69c7.66,0.37,14.18-5.53,14.55-13.2l2.64-54.15c0.37-7.66-5.53-14.18-13.2-14.55l0,0
			c-7.66-0.37-14.18,5.53-14.55,13.2l-2.64,54.15C243.7,101.8,249.61,108.31,257.27,108.69z"/>
	</g>
	<g id="_x3C_径向重复_x3E__00000025413809309984693980000012048066681393845158_">
		<path d="M332.4,134.43L332.4,134.43c6.24,4.46,14.92,3.01,19.38-3.23l31.5-44.13c4.46-6.24,3.01-14.92-3.23-19.38l0,0
			c-6.24-4.46-14.92-3.01-19.38,3.23l-31.5,44.13C324.71,121.3,326.16,129.97,332.4,134.43z"/>
	</g>
	<g id="_x3C_径向重复_x3E__00000173864770542080288720000001902310988778286217_">
		<path d="M381.69,196.71L381.69,196.71c2.84,7.13,10.92,10.6,18.05,7.76l50.36-20.09c7.13-2.84,10.6-10.92,7.76-18.05l0,0
			c-2.84-7.13-10.92-10.6-18.05-7.76l-50.36,20.09C382.32,181.5,378.85,189.58,381.69,196.71z"/>
	</g>
	<g id="_x3C_径向重复_x3E__00000167368622439913612330000001713950595417867179_">
		<path d="M389.49,275.74L389.49,275.74c-1.46,7.53,3.46,14.82,10.99,16.28l53.22,10.32c7.53,1.46,14.82-3.46,16.28-10.99l0,0
			c1.46-7.53-3.46-14.82-10.99-16.28l-53.22-10.32C398.24,263.29,390.95,268.21,389.49,275.74z"/>
	</g>
	<g id="_x3C_径向重复_x3E__00000088813561492993009280000011981714006550972604_">
		<path d="M353.31,346.45L353.31,346.45c-5.3,5.55-5.1,14.34,0.44,19.64l39.19,37.46c5.55,5.3,14.34,5.1,19.64-0.44h0
			c5.3-5.55,5.1-14.34-0.44-19.64l-39.19-37.46C367.41,340.71,358.61,340.9,353.31,346.45z"/>
	</g>
	<g id="_x3C_径向重复_x3E__00000071526540022377811160000012807060727716954787_">
		<path d="M284.66,386.37L284.66,386.37c-7.46,1.8-12.05,9.31-10.25,16.76l12.72,52.7c1.8,7.46,9.31,12.05,16.76,10.25h0
			c7.46-1.8,12.05-9.31,10.25-16.76l-12.72-52.7C299.62,389.16,292.12,384.57,284.66,386.37z"/>
	</g>
</g>
</svg>
