<?xml version="1.0" encoding="utf-8"?>
<!-- Generator: $$$/GeneralStr/196=Adobe Illustrator 27.6.0, SVG Export Plug-In . SVG Version: 6.00 Build 0)  -->
<svg version="1.1" id="图层_1" xmlns="http://www.w3.org/2000/svg" xmlns:xlink="http://www.w3.org/1999/xlink" x="0px" y="0px"
	 viewBox="0 0 500 500" style="enable-background:new 0 0 500 500;" xml:space="preserve">
<g>
	<path d="M247.6,342.6c4.9,1.8,10.9,3.5,18,5.1c7.1,1.5,14.6,2.8,22.6,3.9c6.3,0.9,12.9,1.6,19.5,2.2c3.7-7.3,6.8-15.3,9.5-24.2
		c4.9-16.5,7.9-36.5,9-59.9c-12.8-3.3-23.7-6.9-32.6-10.7c-11.2-4.8-20.2-10.6-26.9-17.5c-6.8-6.9-11.5-15.3-14.3-25.1
		c0-0.1,0-0.1-0.1-0.2c0.8,9.8,1.2,20.8,1.2,32.8c0,19.6-1,36.2-3,49.7c-2,13.5-5.6,24.4-10.8,32.7c-5.2,8.3-12.5,14.3-21.9,18
		c-9.4,3.7-21.4,5.5-36.1,5.5s-26.7-1.8-35.9-5.5c-9.2-3.7-16.4-9.7-21.6-18c-5.2-8.3-8.8-19.2-10.8-32.7c-2-13.5-3-30.1-3-49.7
		c0-19.3,1-35.8,3-49.5c2-13.7,5.6-24.8,10.8-33.4c5.2-8.6,12.4-14.8,21.6-18.6c9.2-3.8,21.2-5.8,35.9-5.8s26.8,1.9,36.1,5.8
		c9.4,3.8,16.6,10.1,21.9,18.6c3.8,6.2,6.7,13.7,8.8,22.5c-0.1-2.8-0.2-5.7-0.2-8.7c0-33.4,10-57.3,30-71.6
		c-10-7.4-21.4-12.9-34.4-16.4c-18.1-4.9-38.8-7.4-62.2-7.4c-23,0-43.6,2.5-61.7,7.4c-18.1,4.9-33.3,13.6-45.6,26
		c-12.3,12.4-21.6,29.2-28.1,50.4c-6.4,21.2-9.7,48-9.7,80.6c0,32.5,3.2,59.4,9.7,80.6c6.4,21.2,15.8,38,28.1,50.4
		c12.3,12.4,27.5,21.1,45.6,26c18.1,4.9,38.7,7.4,61.7,7.4c23.3,0,44-2.5,62.2-7.4c2-0.5,3.9-1.1,5.8-1.8c-0.6-0.2-1.2-0.3-1.8-0.5
		V342.6z"/>
	<path d="M317.1,168.4c1.6-8.2,5.3-14,11.3-17.4c8.1-4.6,21.3-6.9,39.4-6.9c6.7,0,13.9,0.3,21.4,0.9c7.5,0.6,15,1.5,22.3,2.8
		c7.4,1.2,14.1,2.5,20.3,3.9c6.1,1.4,11.2,2.7,15.2,3.9V98.1c-8.6-3.1-19.9-5.8-33.8-8.1c-14-2.3-30-3.5-48.1-3.5
		c-37.1,0-65.9,7.1-86.3,21.4c-0.2,0.1-0.4,0.3-0.6,0.5c3.9,2.9,7.7,6.1,11.2,9.6C301.5,130.5,310.8,147.3,317.1,168.4z"/>
	<path d="M459.9,280.7c-2.5-10.6-7.1-19.8-14-27.6c-6.9-7.8-16.4-14.6-28.5-20.3c-12.1-5.7-27.7-10.8-46.7-15.4
		c-11.7-2.8-21.1-5.4-28.3-7.8c-7.2-2.5-12.7-5.1-16.6-8.1c-0.8-0.6-1.4-1.2-2.1-1.8c2,14.7,3,31.1,3,49.4c0,7.2-0.2,14-0.5,20.6
		c3.2,0.8,6.5,1.6,9.9,2.4c12.3,3.1,22.2,6,29.7,8.7c7.5,2.8,13.4,5.8,17.5,9.2c4.1,3.4,7,7.2,8.5,11.5c1.5,4.3,2.3,9.5,2.3,15.7
		c0,7.1-0.9,13.1-2.8,18c-1.8,4.9-5,8.9-9.4,12c-4.5,3.1-10.3,5.2-17.5,6.4c-7.2,1.2-16,1.8-26.5,1.8c-8.3,0-16.7-0.4-25.1-1.2
		c-1.7-0.2-3.4-0.3-5.1-0.5c-5.1,10.2-11.2,19-18.4,26.2c-10.9,11.1-24.2,19.2-39.8,24.3c9.6,2.6,22.3,5,38,7.3
		c16.7,2.5,34.5,3.7,53.2,3.7c43.9,0,75.4-8.2,94.4-24.6c19-16.4,28.5-40.3,28.5-71.6C463.6,304.1,462.3,291.2,459.9,280.7z"/>
</g>
</svg>
